<svg viewBox="0 0 241 80">
  <title>hypersay-logo-spaced</title>
  <desc>Created with Sketch.</desc>
  <g class="layer">
    <title>Layer 1</title>
    <g fill="none" fill-rule="evenodd" id="Page-1">
      <g id="hypersay-logo-spaced" transform="translate(2.000000, 2.000000)">
        <path
          d="m103.11847,26.08543c-0.64262,-0.64751 -1.4034,-1.16134 -2.2616,-1.53104c-0.86442,-0.3718 -1.79311,-0.55978 -2.76326,-0.55978l-0.66334,0c-1.07794,0 -2.09369,0.22349 -3.02031,0.66839c-0.42495,0.20261 -0.82504,0.4449 -1.1961,0.7227l0,-9.7857l-3.97386,0l0,32.21658l3.97386,0l0,-16.81637c0,-0.44281 0.08085,-0.84385 0.24461,-1.22817c0.16377,-0.38433 0.38972,-0.72271 0.66957,-1.00468c0.284,-0.28616 0.61152,-0.50548 0.99709,-0.67466c0.37521,-0.16292 0.78358,-0.24439 1.21683,-0.24439l1.75165,0c0.43118,0 0.83955,0.08147 1.21683,0.24439c0.38557,0.16918 0.71103,0.3885 0.9971,0.67466c0.27984,0.28197 0.5058,0.62035 0.66956,1.00468c0.16377,0.38432 0.24254,0.78536 0.24254,1.22817l0,16.81637l3.97386,0l0,-16.66598c0,-0.98171 -0.18656,-1.91955 -0.55555,-2.78428c-0.36692,-0.86473 -0.87686,-1.6313 -1.51948,-2.28089l0,0zm13.74456,13.87752l-5.30471,-15.53806l-4.063,0l7.32791,20.81628l-4.13555,11.3982l3.98008,0l11.54846,-32.21448l-4.06715,0l-5.28604,15.53806zm39.06037,-12.11526l1.75165,0c0.43118,0 0.83955,0.08355 1.21683,0.24647c0.38557,0.1671 0.71103,0.3885 0.9971,0.67257c0.27985,0.28407 0.5058,0.62035 0.66956,1.00468c0.16377,0.38432 0.24461,0.78536 0.24461,1.22817l0,2.59212l-8.00784,0l0,-2.59212c0,-0.44281 0.08084,-0.84385 0.24461,-1.22817c0.16376,-0.38433 0.38971,-0.72061 0.66956,-1.00468c0.284,-0.28407 0.61153,-0.50547 0.99709,-0.67257c0.37521,-0.16292 0.78566,-0.24647 1.21683,-0.24647l0,0zm6.77651,-1.76289c-0.64262,-0.64542 -1.40339,-1.16133 -2.2616,-1.53104c-0.86442,-0.37179 -1.79311,-0.55978 -2.76326,-0.55978l-1.75165,0c-0.97222,0 -1.9009,0.18799 -2.76325,0.55978c-0.85821,0.36971 -1.61898,0.88562 -2.2616,1.53104c-0.63847,0.64333 -1.1505,1.40989 -1.52156,2.28089c-0.36691,0.86891 -0.55555,1.80467 -0.55555,2.78428l0,9.94027c0,0.97961 0.18864,1.91536 0.55555,2.78636c0.37106,0.86892 0.88309,1.63548 1.52156,2.27672c0.64054,0.64751 1.40132,1.16342 2.2616,1.53313c0.86235,0.37179 1.79311,0.56187 2.76325,0.56187l1.75165,0c0.96808,0 1.89676,-0.19008 2.76119,-0.56187c0.86028,-0.36971 1.62105,-0.88562 2.26367,-1.53104c0.64262,-0.64751 1.15464,-1.41616 1.51948,-2.28089c0.36899,-0.86683 0.55763,-1.80258 0.55763,-2.78428l0,-0.86682l-3.97387,-0.65169l0,1.67099c0,0.43654 -0.08292,0.84802 -0.24668,1.22608c-0.16169,0.38433 -0.38764,0.72061 -0.66749,1.00259c-0.284,0.28825 -0.60945,0.50756 -0.9971,0.67675c-0.37728,0.16292 -0.78565,0.24438 -1.21683,0.24438l-1.75165,0c-0.43117,0 -0.84162,-0.08146 -1.21683,-0.24438c-0.38764,-0.16919 -0.71309,-0.3885 -0.99709,-0.67675c-0.28192,-0.28198 -0.5058,-0.61826 -0.66956,-1.00468c-0.1617,-0.37597 -0.24461,-0.78745 -0.24461,-1.22399l0,-4.22759l11.98171,0l0,-5.86516c0,-0.9817 -0.18864,-1.91745 -0.55763,-2.78428c-0.36691,-0.86473 -0.87686,-1.6313 -1.51948,-2.28089l0,0zm-22.63341,15.15708c0,0.43654 -0.08292,0.84802 -0.24461,1.22817c-0.16376,0.38224 -0.38764,0.72062 -0.66957,1.00259c-0.28399,0.28616 -0.60945,0.50757 -0.99709,0.67466c-0.37521,0.16292 -0.78358,0.24647 -1.21683,0.24647l-1.75165,0c-0.43117,0 -0.83955,-0.08355 -1.21683,-0.24647c-0.38557,-0.16709 -0.7131,-0.3885 -0.99709,-0.67466c-0.27985,-0.28197 -0.5058,-0.62035 -0.66957,-1.00676c-0.16169,-0.37598 -0.24253,-0.78746 -0.24253,-1.224l0,-10.24313c0,-0.44281 0.07877,-0.84385 0.24461,-1.22818c0.16169,-0.38223 0.38764,-0.72061 0.66749,-1.00259c0.28607,-0.28615 0.61152,-0.50756 0.99917,-0.67466c0.3752,-0.16292 0.78358,-0.24647 1.21475,-0.24647l1.75165,0c0.43325,0 0.84162,0.08355 1.2189,0.24647c0.38557,0.1671 0.71103,0.38851 0.99502,0.67466c0.27985,0.28198 0.50581,0.62036 0.66957,1.00468c0.16377,0.38224 0.24461,0.78328 0.24461,1.22609l0,10.24313zm3.41624,-12.87702c-0.36484,-0.86474 -0.87686,-1.6313 -1.51741,-2.27881c-0.64469,-0.6475 -1.40546,-1.16133 -2.26367,-1.53104c-0.86235,-0.37179 -1.79311,-0.56186 -2.76326,-0.56186l-0.66127,0c-1.17744,0 -2.27819,0.26944 -3.27113,0.79998c-0.70481,0.37388 -1.32877,0.84593 -1.86774,1.4078c-0.72761,-1.14044 -1.24378,-1.77751 -3.0514,-1.77751l0,32.21658l3.97387,0l0,-9.78361c0.37106,0.2778 0.76906,0.52009 1.19402,0.7227c0.92869,0.44281 1.94444,0.66839 3.02238,0.66839l0.66127,0c0.96808,0 1.89676,-0.18798 2.76326,-0.56187c0.86028,-0.36761 1.62105,-0.88353 2.26367,-1.53104c0.64262,-0.6475 1.15257,-1.41407 1.51741,-2.2788c0.37106,-0.86682 0.55763,-1.80466 0.55763,-2.78428l0,-9.94235c0,-0.97962 -0.18657,-1.91746 -0.55763,-2.78428l0,0zm34.26541,-4.3713c-1.17537,0 -2.27818,0.26945 -3.27113,0.79999c-0.70481,0.37388 -1.32877,0.84593 -1.86774,1.4078c-0.72761,-1.14045 -1.24377,-1.77751 -3.0514,-1.77751l0,23.39378l3.97387,0l0,-16.36729c0,-0.43654 0.08084,-0.84802 0.24461,-1.22817c0.16376,-0.38224 0.38764,-0.72062 0.66749,-1.00259c0.28607,-0.28616 0.61153,-0.50757 0.99917,-0.67466c0.37521,-0.16292 0.78358,-0.24439 1.21683,-0.24439l3.30015,0l0,-4.30696l-2.21185,0z"
          fill="#FFFFFF" id="path-1" />
        <path
          d="m197.92159,38.74802c-0.38348,-0.78976 -0.89756,-1.45723 -1.53186,-1.98581c-0.61358,-0.512 -1.31836,-0.93486 -2.09362,-1.25616c-0.73587,-0.30886 -1.4904,-0.58248 -2.25529,-0.82293l-2.20348,-0.68612c-0.66954,-0.20314 -1.2686,-0.46018 -1.78268,-0.76074c-0.47469,-0.27569 -0.86232,-0.61772 -1.1463,-1.01364c-0.25704,-0.36068 -0.38763,-0.84987 -0.38763,-1.45722c0,-0.42287 0.07877,-0.79806 0.23424,-1.11728c0.15546,-0.32544 0.37104,-0.60735 0.64052,-0.83537c0.28191,-0.24045 0.60321,-0.41872 0.98462,-0.54724c0.39177,-0.13266 0.81879,-0.19899 1.2686,-0.19899l1.53808,0c0.43738,0 0.83537,0.07877 1.21678,0.24252c0.38349,0.16583 0.71929,0.39178 0.99706,0.66954c0.27984,0.27777 0.50371,0.61357 0.66954,0.99498c0.16169,0.37726 0.24253,0.78769 0.24253,1.21885l0,1.45515l3.97579,-0.73172l0,-0.57211c0,-0.97011 -0.18656,-1.89875 -0.55553,-2.76314c-0.36691,-0.85817 -0.87891,-1.62098 -1.5215,-2.26357c-0.64259,-0.64259 -1.40334,-1.15252 -2.26152,-1.51942c-0.86232,-0.36897 -1.79097,-0.5576 -2.76315,-0.5576l-1.53808,0c-0.95974,0 -1.87596,0.16376 -2.72584,0.48091c-0.84988,0.32129 -1.60856,0.7794 -2.25322,1.3598c-0.64674,0.58455 -1.16704,1.29347 -1.54637,2.10396c-0.38142,0.81879 -0.57627,1.73085 -0.57627,2.70924c0,1.14008 0.19693,2.1164 0.58248,2.90202c0.38349,0.78355 0.89963,1.44272 1.53186,1.96301c0.61358,0.50578 1.32043,0.91828 2.10191,1.22921c0.73794,0.29228 1.49455,0.55139 2.2698,0.77733c0.75246,0.21972 1.48626,0.43945 2.20141,0.65917c0.66332,0.20522 1.26031,0.46225 1.77439,0.76904c0.47468,0.28191 0.86024,0.63429 1.1463,1.05094c0.26118,0.38141 0.39385,0.89963 0.39385,1.54014c0,0.41458 -0.08499,0.78148 -0.25082,1.09241c-0.1762,0.33166 -0.41043,0.60735 -0.71307,0.84158c-0.31923,0.2446 -0.68406,0.43323 -1.08827,0.56382c-0.42287,0.13681 -0.85195,0.20314 -1.31006,0.20314l-1.75159,0c-0.4353,0 -0.86024,-0.08291 -1.26031,-0.24874c-0.40836,-0.1679 -0.77111,-0.39799 -1.07997,-0.68197c-0.30471,-0.28399 -0.55139,-0.61979 -0.7338,-1.00327c-0.18034,-0.37519 -0.2674,-0.76697 -0.2674,-1.19398l0,-2.24492l-3.97372,0.64674l0,1.44894c0,0.98046 0.20521,1.9174 0.60735,2.78179c0.39593,0.85609 0.9328,1.61476 1.59613,2.25114c0.66332,0.64051 1.44479,1.15044 2.3237,1.51526c0.88512,0.3669 1.82206,0.55346 2.78802,0.55346l1.75159,0c0.95767,0 1.88632,-0.16168 2.76108,-0.47883c0.8789,-0.31715 1.66453,-0.77318 2.33199,-1.34944c0.67991,-0.58248 1.22508,-1.29347 1.621,-2.10811c0.39799,-0.82293 0.60113,-1.73707 0.60113,-2.71753c0,-1.13801 -0.19485,-2.1164 -0.5804,-2.90824l0,0zm36.29349,-14.07997l-5.28586,15.42008l-5.3045,-15.42008l-4.06285,0l7.32764,20.65822l-4.1354,11.31373l3.97993,0l11.54596,-31.97195l-4.06492,0zm-20.34266,16.69034c0,0.43323 -0.08291,0.84158 -0.2446,1.21884c-0.16375,0.37934 -0.38763,0.71514 -0.66954,0.99498c-0.28398,0.28398 -0.60943,0.50371 -0.99705,0.66954c-0.3752,0.16168 -0.78356,0.2446 -1.21679,0.2446l-1.75158,0c-0.43116,0 -0.83952,-0.08292 -1.21679,-0.2446c-0.38555,-0.16583 -0.71307,-0.38556 -0.99705,-0.66954c-0.27984,-0.27984 -0.50579,-0.61564 -0.66954,-0.99912c-0.16169,-0.37312 -0.24253,-0.78147 -0.24253,-1.2147l0,-0.91829c0,-0.43944 0.07877,-0.83744 0.2446,-1.21884c0.16376,-0.38349 0.3897,-0.72136 0.67369,-1.01156c0.28398,-0.28813 0.60735,-0.50993 0.99083,-0.67369c0.37727,-0.16168 0.78563,-0.2446 1.21679,-0.2446l4.87956,0l0,4.06698zm3.41611,-12.77925c-0.36482,-0.85817 -0.87682,-1.61891 -1.51735,-2.2615c-0.64466,-0.64259 -1.40541,-1.15252 -2.26358,-1.51942c-0.86232,-0.36897 -1.79305,-0.5576 -2.76316,-0.5576l-1.53808,0c-0.97011,0 -1.89876,0.18863 -2.76108,0.5576c-0.8561,0.36483 -1.61685,0.87476 -2.26359,1.51942c-0.64259,0.64259 -1.15252,1.40333 -1.51942,2.2615c-0.36897,0.86646 -0.5576,1.79511 -0.5576,2.76314l0,0.78769l3.97579,0.64673l0,-1.58367c0,-0.43116 0.08084,-0.84159 0.24252,-1.21678c0.16583,-0.38348 0.39178,-0.71928 0.66954,-0.99705c0.27777,-0.27776 0.61565,-0.5037 0.99706,-0.66953c0.38141,-0.16376 0.78148,-0.2446 1.21678,-0.2446l1.53808,0c0.43323,0 0.84159,0.08291 1.21886,0.2446c0.38555,0.16583 0.711,0.38555 0.99498,0.66953c0.27984,0.27984 0.50579,0.61565 0.66954,0.99705c0.16376,0.37934 0.2446,0.77733 0.2446,1.21678l0,2.69888l-4.87956,0c-0.96804,0 -1.89876,0.18863 -2.76316,0.5576c-0.85817,0.3669 -1.61892,0.8789 -2.25944,1.51941c-0.64052,0.63845 -1.15252,1.40126 -1.52357,2.26358c-0.3669,0.86231 -0.55346,1.79096 -0.55346,2.76313l0,0.21351c0,0.9701 0.18656,1.90082 0.55346,2.76313c0.37105,0.86439 0.88305,1.62306 1.5215,2.26151c0.64259,0.64259 1.40334,1.15459 2.26151,1.51941c0.8644,0.37104 1.79512,0.5576 2.76316,0.5576l0.66332,0c1.17325,0 2.27188,-0.2674 3.26272,-0.79391c0.69649,-0.37104 1.31835,-0.83329 1.85523,-1.37846c0.72965,1.13179 1.26446,1.74536 3.07201,1.74536l0,-16.5415c0,-0.97218 -0.18656,-1.9029 -0.55761,-2.76314l0,0z"
          fill="#FFFFFF" id="path-3" />
        <path
          d="m44.38012,25.67995l14.57956,8.40073l-14.57956,8.39912l0,-16.79985l0,0zm14.57988,8.39992l-14.57956,-8.40073l14.57956,-8.39912l0,16.79985l0,0zm0,16.80002l-14.57956,-8.40073l14.57956,-8.39912l0,16.79985l0,0zm-14.58004,-25.19994l-14.57956,8.40073l14.57956,8.39912l0,-16.79985l0,0zm0.00016,16.80001l14.57956,8.40074l-14.57956,8.39912l0,-16.79986l0,0zm-0.00016,0l-14.57956,8.40074l14.57956,8.39912l0,-16.79986l0,0zm0.00016,-33.60003l14.57956,8.40073l-14.57956,8.39912l0,-16.79985l0,0zm-29.16008,16.80002l14.57956,8.40073l-14.57956,8.39912l0,-16.79985l0,0zm14.58004,8.39992l-14.57955,-8.40073l14.57955,-8.39912l0,16.79985l0,0zm0,16.80002l-14.57955,-8.40073l14.57955,-8.39912l0,16.79985l0,0zm-14.58004,-8.39993l14.57956,8.40074l-14.57956,8.39912l0,-16.79986l0,0zm0,-33.60003l14.57956,8.40073l-14.57956,8.39912l0,-16.79985l0,0zm29.15992,0l-14.57956,8.40073l14.57956,8.39912l0,-16.79985l0,0zm-14.57988,25.19994l14.57956,-8.40073l-14.57956,-8.39912l0,16.79985l0,0zm0,-16.80001l-14.57955,-8.40074l14.57955,-8.39912l0,16.79986l0,0zm0,0l14.57956,-8.40074l-14.57956,-8.39912l0,16.79986l0,0zm0,50.40005l-14.57955,-8.40073l14.57955,-8.39913l0,16.79986l0,0zm14.58004,8.40009l-14.57955,-8.40074l14.57955,-8.39912l0,16.79986l0,0zm-14.58004,-8.40009l14.57956,-8.40073l-14.57956,-8.39913l0,16.79986l0,0zm0,-16.80002l14.57956,-8.40073l-14.57956,-8.39912l0,16.79985l0,0zm-14.58004,-25.19994l-14.57955,8.40073l14.57955,8.39912l0,-16.79985l0,0zm0,16.80001l-14.57955,8.40074l14.57955,8.39912l0,-16.79986l0,0zm0,-33.60003l-14.57955,8.40073l14.57955,8.39912l0,-16.79985l0,0zm-14.58004,25.19994l14.57956,-8.40073l-14.57956,-8.39912l0,16.79985l0,0zm0,16.80002l14.57956,-8.40073l-14.57956,-8.39912l0,16.79985l0,0z"
          id="path-5" stroke="#FFFFFF" stroke-linejoin="round" stroke-width="3.28531" />
      </g>
    </g>
  </g>
  <g class="layer" display="inline">
    <title>abcOnTop</title>
    <path class="letter-a" d="m31.79413,36.23303l-0.0068,-33.74434l29.18552,16.74207l-14.70588,-8.37103l-14.47964,8.48417" fill="none"
      id="svg_5"   stroke-dasharray="null" stroke-linecap="round" stroke-linejoin="round"
      stroke-width="3.28531" />
    <path class="letter-b" d="m2.60861,52.86199l-0.0068,-33.63122l14.59276,8.37104l-14.47964,8.48416l14.47964,8.37104l-14.58596,8.40498z"
      fill="none" id="svg_7"   stroke-dasharray="null" stroke-linecap="round" stroke-linejoin="round"
      stroke-width="3.28531" />
    <path class="letter-c" d="m46.50001,44.37783l-14.71268,8.56334l0,16.74208l14.59276,8.37105" fill="none" id="svg_8"  
      stroke-dasharray="null" stroke-linecap="round" stroke-linejoin="round" stroke-width="3.28531" />
  </g>
  <g >
    <title>hat</title>
    <g id="svg_30" class="christmas-hat" >
      <path
        d="m182.67265,31.78908l15.35002,-9.60131c-5.29093,-4.11198 -19.12211,-13.39985 -21.0487,-5.52097c-1.92659,7.87888 -0.66136,5.75101 -3.10554,8.10892l0.43133,1.38025l5.77976,-5.08965l2.59314,10.72276z"
        fill="#ce1a1a" id="svg_29"  stroke="#050505" stroke-dasharray="null" stroke-linecap="round"
        stroke-linejoin="round" stroke-width="0.1" />
      <path
        d="m176.50887,22.24898c-0.01341,0.00042 -0.02637,0.00155 -0.03984,0.0029c-0.21549,0.02146 -0.40568,0.15822 -0.50229,0.36199l-0.05123,0.15421c0.01105,-0.05344 0.02802,-0.10527 0.05123,-0.15421c-0.17231,-0.17852 -0.41416,-0.26092 -0.65312,-0.22226c-0.23897,0.03866 -0.4465,0.19371 -0.55992,0.41846c-0.32018,-0.1972 -0.7193,-0.18526 -1.02807,0.03113c-0.30877,0.21639 -0.47334,0.59952 -0.42332,0.98606l0.03273,0.1571c-0.01479,-0.05147 -0.02583,-0.10383 -0.03273,-0.1571l-0.00498,0.01448c-0.2684,0.02925 -0.48852,0.2375 -0.54569,0.5162c-0.05717,0.2787 0.06171,0.56466 0.29455,0.70877l0.36356,0.08833c-0.12694,0.01045 -0.25368,-0.02032 -0.36356,-0.08833c-0.17959,0.20117 -0.22092,0.49901 -0.10245,0.74497c0.11847,0.24597 0.37147,0.38759 0.63249,0.35547l0.15866,-0.04199c-0.05105,0.02137 -0.10407,0.03527 -0.15866,0.04199c0.14818,0.27278 0.39387,0.47177 0.68229,0.55095c0.28842,0.07918 0.59477,0.03238 0.8502,-0.12959c0.20838,0.32862 0.57822,0.50122 0.94909,0.44307c0.37087,-0.05815 0.6768,-0.33697 0.78546,-0.71529l0.03771,-0.2114c-0.00565,0.07182 -0.0179,0.14243 -0.03771,0.2114c0.25509,0.16728 0.57596,0.17671 0.83953,0.02462c0.26357,-0.1521 0.42802,-0.44212 0.43044,-0.758l-0.09449,-0.47197l-0.37223,-0.31934c0.28783,0.1803 0.46929,0.455 0.46672,0.79131c0.34224,0.00359 0.63295,-0.28967 0.7634,-0.62624c0.13045,-0.33657 0.0811,-0.72027 -0.12949,-1.0085c0.08735,-0.2146 0.08217,-0.4587 -0.01423,-0.66896c-0.0964,-0.21026 -0.27421,-0.36653 -0.48806,-0.42787c-0.04786,-0.27867 -0.24513,-0.50282 -0.50585,-0.57629c-0.26072,-0.07346 -0.53833,0.01712 -0.71289,0.23312l-0.10601,0.17882c0.02709,-0.06467 0.06246,-0.12494 0.10601,-0.17882c-0.12305,-0.16976 -0.31604,-0.26555 -0.51723,-0.25918l0,0z"
        fill="#ffffff" id="svg_28"  stroke="#0c0b0b" stroke-dasharray="null" stroke-linecap="round"
        stroke-linejoin="round" stroke-width="0.1" />
      <path
        d="m180.08469,21.17846c-0.08626,-0.58213 -0.08626,-1.26166 -0.08626,-1.93234l-0.03042,-0.6815l0.06085,-0.57798"
        fill="none" id="svg_27" stroke="#070707" stroke-dasharray="null" stroke-linecap="round" stroke-linejoin="round"
        stroke-width="0.1" />
      <path
        d="m181.22917,31.75965c-0.18297,0.64478 -0.51931,2.54821 1.97194,3.44177c2.49126,0.89357 17.07464,-10.3642 17.41153,-11.31329c0.33688,-0.94909 -0.22554,-2.67897 -1.6235,-3.37495c-1.39796,-0.69596 -2.84898,-0.6809 -3.45226,-0.12579l0.92608,0.61907c1.62302,0.34679 -13.1054,10.95089 -13.71471,10.16972c-0.60931,-0.78118 -0.40592,-0.93928 -0.5547,-1.28702l-0.96439,1.87048z"
        fill="#ffffff" id="svg_26" stroke="#070707" stroke-dasharray="null" stroke-linecap="round"
        stroke-linejoin="round" stroke-width="0.1" />
    </g>
  </g>
</svg>